<?xml version="1.0" standalone="no"?>
<!DOCTYPE svg PUBLIC "-//W3C//DTD SVG 20010904//EN"
 "http://www.w3.org/TR/2001/REC-SVG-20010904/DTD/svg10.dtd">
<svg version="1.0" xmlns="http://www.w3.org/2000/svg"
 width="636.000000pt" height="636.000000pt" viewBox="0 0 636.000000 636.000000"
 preserveAspectRatio="xMidYMid meet">
<metadata>
Created by potrace 1.14, written by Peter Selinger 2001-2017
</metadata>
<g transform="translate(0.000000,636.000000) scale(0.100000,-0.100000)"
fill="#000000" stroke="none">
<path d="M2614 5824 c-67 -33 -178 -232 -219 -392 -26 -99 -26 -255 0 -371 6
-26 4 -31 -12 -31 -11 0 -51 -8 -90 -19 l-71 -18 5 38 c5 31 1 42 -20 63 -33
33 -54 33 -124 0 -264 -120 -457 -364 -522 -659 -7 -27 -14 -61 -17 -75 -3
-14 -7 -88 -9 -165 -5 -261 58 -495 188 -698 l31 -48 107 6 c59 2 123 7 141
10 18 3 49 7 68 9 115 16 296 61 400 101 84 31 198 81 235 102 22 13 50 27 63
33 47 20 190 117 282 191 220 175 410 406 539 654 22 43 41 84 41 90 0 21 -88
138 -155 206 -154 155 -380 272 -631 324 -61 13 -200 24 -306 25 -15 0 -8 128
11 203 24 93 68 184 122 256 56 73 61 92 41 132 -21 40 -58 52 -98 33z"/>
<path d="M5289 5765 c-437 -71 -854 -300 -1147 -628 -127 -143 -305 -408 -540
-802 -106 -180 -143 -233 -232 -334 -197 -225 -646 -518 -940 -615 -208 -69
-515 -110 -930 -126 -333 -13 -436 -36 -675 -155 -164 -82 -292 -173 -421
-300 -128 -126 -210 -238 -284 -388 -139 -280 -153 -572 -40 -796 74 -148 253
-337 401 -425 170 -102 318 -144 543 -156 181 -9 131 9 486 -177 203 -107 257
-123 416 -123 464 0 897 278 1094 705 91 197 158 386 218 619 l28 108 110 34
c494 150 703 281 957 599 27 33 53 61 57 63 18 7 100 -38 144 -78 63 -59 81
-109 72 -211 -13 -152 -53 -227 -200 -374 -204 -202 -584 -422 -871 -504 -109
-31 -327 -111 -342 -125 -5 -5 59 -130 89 -174 36 -51 36 -61 6 -109 -17 -28
-22 -31 -40 -22 -45 24 -98 -12 -98 -67 0 -31 16 -51 144 -188 240 -253 369
-335 566 -357 118 -14 390 5 547 36 251 51 395 24 623 -119 86 -53 87 -53 71
54 -38 244 14 466 144 610 113 127 180 256 216 421 56 257 25 529 -88 759 -49
101 -66 125 -137 195 -91 91 -165 135 -296 175 l-85 27 -9 77 c-5 42 -6 79 -3
82 3 3 31 -4 63 -16 234 -87 470 -74 769 41 244 94 534 311 604 450 60 120 52
201 -35 389 -66 143 -77 187 -72 292 3 78 7 90 65 208 66 134 85 193 108 347
19 125 19 252 0 378 -59 391 -225 606 -530 686 -105 28 -396 35 -526 14z
m-2204 -3248 c50 -49 70 -108 59 -171 -8 -48 -16 -56 -67 -56 -113 0 -194 104
-151 195 18 39 65 75 98 75 10 0 38 -19 61 -43z"/>
</g>
</svg>
